<svg xmlns="http://www.w3.org/2000/svg" width="1200" height="700" viewBox="0 0 1200 700">
  <rect width="1200" height="700" fill="#0b1220"/>
  <text x="40" y="50" fill="#e2e8f0" font-size="30" font-family="Arial">ZCyptoBot Reference Architecture</text>
  <rect x="40" y="90" width="1120" height="560" rx="16" fill="#111827" stroke="#334155"/>
  <rect x="80" y="140" width="220" height="140" rx="12" fill="#1d4ed8"/><text x="100" y="210" fill="white" font-size="20">Clients / API</text>
  <rect x="340" y="140" width="220" height="140" rx="12" fill="#0f766e"/><text x="365" y="210" fill="white" font-size="20">AIOps Orchestrator</text>
  <rect x="600" y="140" width="220" height="140" rx="12" fill="#7c3aed"/><text x="625" y="210" fill="white" font-size="20">Execution Engine</text>
  <rect x="860" y="140" width="220" height="140" rx="12" fill="#b45309"/><text x="895" y="210" fill="white" font-size="20">Exchanges</text>
  <rect x="220" y="350" width="220" height="140" rx="12" fill="#be123c"/><text x="250" y="425" fill="white" font-size="20">Risk + Compliance</text>
  <rect x="500" y="350" width="220" height="140" rx="12" fill="#166534"/><text x="530" y="425" fill="white" font-size="20">Data + Feature Store</text>
  <rect x="780" y="350" width="220" height="140" rx="12" fill="#374151"/><text x="812" y="425" fill="white" font-size="20">Observability</text>
  <line x1="300" y1="210" x2="340" y2="210" stroke="#94a3b8" stroke-width="4"/>
  <line x1="560" y1="210" x2="600" y2="210" stroke="#94a3b8" stroke-width="4"/>
  <line x1="820" y1="210" x2="860" y2="210" stroke="#94a3b8" stroke-width="4"/>
  <line x1="450" y1="350" x2="450" y2="280" stroke="#94a3b8" stroke-width="4"/>
  <line x1="710" y1="350" x2="710" y2="280" stroke="#94a3b8" stroke-width="4"/>
</svg>
