<svg xmlns="http://www.w3.org/2000/svg" width="1200" height="760" viewBox="0 0 1200 760">
  <style>
    .box { fill:#0f172a; stroke:#38bdf8; stroke-width:2; rx:14; }
    .text { fill:#e2e8f0; font-family:Arial, sans-serif; font-size:20px; }
    .small { fill:#cbd5e1; font-family:Arial, sans-serif; font-size:16px; }
    .arrow { stroke:#22d3ee; stroke-width:3; marker-end:url(#arrow); }
  </style>
  <defs>
    <marker id="arrow" markerWidth="10" markerHeight="10" refX="9" refY="3" orient="auto" markerUnits="strokeWidth">
      <path d="M0,0 L0,6 L9,3 z" fill="#22d3ee"/>
    </marker>
  </defs>
  <rect width="1200" height="760" fill="#020617"/>
  <text x="430" y="50" class="text" style="font-size:30px;">Zypto Growth Engine</text>

  <rect x="80" y="120" width="240" height="120" class="box"/>
  <text x="150" y="170" class="text">Acquire</text>
  <text x="104" y="205" class="small">Paid + content + partners</text>

  <rect x="380" y="120" width="240" height="120" class="box"/>
  <text x="452" y="170" class="text">Activate</text>
  <text x="420" y="205" class="small">Onboarding + sandbox</text>

  <rect x="680" y="120" width="240" height="120" class="box"/>
  <text x="760" y="170" class="text">Monetize</text>
  <text x="710" y="205" class="small">Usage + enterprise plans</text>

  <rect x="980" y="120" width="160" height="120" class="box"/>
  <text x="1020" y="170" class="text">Expand</text>
  <text x="995" y="205" class="small">Multi-desk growth</text>

  <rect x="240" y="380" width="300" height="130" class="box"/>
  <text x="315" y="430" class="text">Referral Engine</text>
  <text x="280" y="465" class="small">Dual-sided rewards + payouts</text>

  <rect x="620" y="380" width="340" height="130" class="box"/>
  <text x="710" y="430" class="text">Viral Loops</text>
  <text x="650" y="465" class="small">Insight sharing + templates + invites</text>

  <rect x="390" y="580" width="420" height="120" class="box"/>
  <text x="500" y="625" class="text">AI Marketing Automation</text>
  <text x="455" y="660" class="small">Scoring, orchestration, creative, spend optimizer</text>

  <line x1="320" y1="180" x2="380" y2="180" class="arrow"/>
  <line x1="620" y1="180" x2="680" y2="180" class="arrow"/>
  <line x1="920" y1="180" x2="980" y2="180" class="arrow"/>
  <line x1="800" y1="245" x2="830" y2="380" class="arrow"/>
  <line x1="500" y1="245" x2="390" y2="380" class="arrow"/>
  <line x1="540" y1="445" x2="620" y2="445" class="arrow"/>
  <line x1="790" y1="510" x2="750" y2="580" class="arrow"/>
  <line x1="450" y1="580" x2="360" y2="510" class="arrow"/>
  <line x1="310" y1="380" x2="200" y2="240" class="arrow"/>
</svg>
